REM DIRINDEX 1\3,1\4,1\5,1\6,1\2\7,1\2\8,1\2\9,1\10
REM DIRNAME cjc056,folder01,folder02,folder03,folder04,folder05,folder06,folder07,folder08,folder09
TITLE ""
FILE "2-48 Level 6-950-962.mp3" MP3
  TRACK 01 AUDIO
    TITLE "0:"
    INDEX 01 00:00:00
  TRACK 02 AUDIO
    TITLE "7:cjc056_3252"
    INDEX 01 00:00:07
  TRACK 03 AUDIO
    TITLE "0:"
    INDEX 01 00:01:03
  TRACK 04 AUDIO
    TITLE "8:cjc056_3253"
    INDEX 01 00:01:17
  TRACK 05 AUDIO
    TITLE "0:"
    INDEX 01 00:02:59
  TRACK 06 AUDIO
    TITLE "9:cjc056_3254"
    INDEX 01 00:02:73
  TRACK 07 AUDIO
    TITLE "0:"
    INDEX 01 00:06:10
  TRACK 08 AUDIO
    TITLE "7:cjc056_3255"
    INDEX 01 00:06:59
  TRACK 09 AUDIO
    TITLE "0:"
    INDEX 01 00:07:58
  TRACK 10 AUDIO
    TITLE "8:cjc056_3256"
    INDEX 01 00:07:70
  TRACK 11 AUDIO
    TITLE "0:"
    INDEX 01 00:10:04
  TRACK 12 AUDIO
    TITLE "9:cjc056_3257"
    INDEX 01 00:10:18
  TRACK 13 AUDIO
    TITLE "0:"
    INDEX 01 00:12:61
  TRACK 14 AUDIO
    TITLE "7:cjc056_3258"
    INDEX 01 00:13:39
  TRACK 15 AUDIO
    TITLE "0:"
    INDEX 01 00:14:41
  TRACK 16 AUDIO
    TITLE "8:cjc056_3259"
    INDEX 01 00:14:54
  TRACK 17 AUDIO
    TITLE "0:"
    INDEX 01 00:16:30
  TRACK 18 AUDIO
    TITLE "9:cjc056_3260"
    INDEX 01 00:16:38
  TRACK 19 AUDIO
    TITLE "0:"
    INDEX 01 00:19:15
  TRACK 20 AUDIO
    TITLE "7:cjc056_3261"
    INDEX 01 00:19:67
  TRACK 21 AUDIO
    TITLE "0:"
    INDEX 01 00:20:63
  TRACK 22 AUDIO
    TITLE "8:cjc056_3262"
    INDEX 01 00:21:02
  TRACK 23 AUDIO
    TITLE "0:"
    INDEX 01 00:22:54
  TRACK 24 AUDIO
    TITLE "9:cjc056_3263"
    INDEX 01 00:22:68
  TRACK 25 AUDIO
    TITLE "0:"
    INDEX 01 00:25:23
  TRACK 26 AUDIO
    TITLE "7:cjc056_3264"
    INDEX 01 00:25:74
  TRACK 27 AUDIO
    TITLE "0:"
    INDEX 01 00:26:56
  TRACK 28 AUDIO
    TITLE "8:cjc056_3265"
    INDEX 01 00:26:69
  TRACK 29 AUDIO
    TITLE "0:"
    INDEX 01 00:28:39
  TRACK 30 AUDIO
    TITLE "9:cjc056_3266"
    INDEX 01 00:28:53
  TRACK 31 AUDIO
    TITLE "0:"
    INDEX 01 00:30:38
  TRACK 32 AUDIO
    TITLE "7:cjc056_3267"
    INDEX 01 00:31:14
  TRACK 33 AUDIO
    TITLE "0:"
    INDEX 01 00:32:17
  TRACK 34 AUDIO
    TITLE "8:cjc056_3268"
    INDEX 01 00:32:29
  TRACK 35 AUDIO
    TITLE "0:"
    INDEX 01 00:34:53
  TRACK 36 AUDIO
    TITLE "9:cjc056_3269"
    INDEX 01 00:34:67
  TRACK 37 AUDIO
    TITLE "0:"
    INDEX 01 00:38:18
  TRACK 38 AUDIO
    TITLE "7:cjc056_3270"
    INDEX 01 00:38:71
  TRACK 39 AUDIO
    TITLE "0:"
    INDEX 01 00:39:58
  TRACK 40 AUDIO
    TITLE "8:cjc056_3271"
    INDEX 01 00:39:72
  TRACK 41 AUDIO
    TITLE "0:"
    INDEX 01 00:41:38
  TRACK 42 AUDIO
    TITLE "9:cjc056_3272"
    INDEX 01 00:41:51
  TRACK 43 AUDIO
    TITLE "0:"
    INDEX 01 00:44:30
  TRACK 44 AUDIO
    TITLE "7:cjc056_3273"
    INDEX 01 00:45:04
  TRACK 45 AUDIO
    TITLE "0:"
    INDEX 01 00:45:71
  TRACK 46 AUDIO
    TITLE "8:cjc056_3274"
    INDEX 01 00:46:07
  TRACK 47 AUDIO
    TITLE "0:"
    INDEX 01 00:48:26
  TRACK 48 AUDIO
    TITLE "9:cjc056_3275"
    INDEX 01 00:48:40
  TRACK 49 AUDIO
    TITLE "0:"
    INDEX 01 00:50:74
  TRACK 50 AUDIO
    TITLE "7:cjc056_3276"
    INDEX 01 00:51:52
  TRACK 51 AUDIO
    TITLE "0:"
    INDEX 01 00:52:45
  TRACK 52 AUDIO
    TITLE "8:cjc056_3277"
    INDEX 01 00:52:57
  TRACK 53 AUDIO
    TITLE "0:"
    INDEX 01 00:54:72
  TRACK 54 AUDIO
    TITLE "9:cjc056_3278"
    INDEX 01 00:55:06
  TRACK 55 AUDIO
    TITLE "0:"
    INDEX 01 00:57:17
  TRACK 56 AUDIO
    TITLE "7:cjc056_3279"
    INDEX 01 00:57:68
  TRACK 57 AUDIO
    TITLE "0:"
    INDEX 01 00:58:73
  TRACK 58 AUDIO
    TITLE "8:cjc056_3280"
    INDEX 01 00:59:12
  TRACK 59 AUDIO
    TITLE "0:"
    INDEX 01 01:01:40
  TRACK 60 AUDIO
    TITLE "9:cjc056_3281"
    INDEX 01 01:01:52
  TRACK 61 AUDIO
    TITLE "0:"
    INDEX 01 01:04:41
  TRACK 62 AUDIO
    TITLE "7:cjc056_3282"
    INDEX 01 01:05:17
  TRACK 63 AUDIO
    TITLE "0:"
    INDEX 01 01:06:20
  TRACK 64 AUDIO
    TITLE "8:cjc056_3283"
    INDEX 01 01:06:32
  TRACK 65 AUDIO
    TITLE "0:"
    INDEX 01 01:08:42
  TRACK 66 AUDIO
    TITLE "9:cjc056_3284"
    INDEX 01 01:08:58
  TRACK 67 AUDIO
    TITLE "0:"
    INDEX 01 01:10:47
  TRACK 68 AUDIO
    TITLE "7:cjc056_3285"
    INDEX 01 01:11:23
  TRACK 69 AUDIO
    TITLE "0:"
    INDEX 01 01:12:34
  TRACK 70 AUDIO
    TITLE "8:cjc056_3286"
    INDEX 01 01:12:50
  TRACK 71 AUDIO
    TITLE "0:"
    INDEX 01 01:14:63
  TRACK 72 AUDIO
    TITLE "9:cjc056_3287"
    INDEX 01 01:14:74
  TRACK 73 AUDIO
    TITLE "0:"
    INDEX 01 01:17:26
  TRACK 74 AUDIO
    TITLE "7:cjc056_3288"
    INDEX 01 01:18:02
  TRACK 75 AUDIO
    TITLE "0:"
    INDEX 01 01:19:03
  TRACK 76 AUDIO
    TITLE "8:cjc056_3289"
    INDEX 01 01:19:15
  TRACK 77 AUDIO
    TITLE "0:"
    INDEX 01 01:21:23
  TRACK 78 AUDIO
    TITLE "9:cjc056_3290"
    INDEX 01 01:21:33
  TRACK 79 AUDIO
    TITLE "0:"
    INDEX 01 01:24:18
